<?xml version="1.0" encoding="utf-8" standalone="no"?>
<!DOCTYPE svg PUBLIC "-//W3C//DTD SVG 1.1//EN"
  "http://www.w3.org/Graphics/SVG/1.1/DTD/svg11.dtd">
<svg xmlns:xlink="http://www.w3.org/1999/xlink" width="851.4pt" height="402.48pt" viewBox="0 0 851.4 402.48" xmlns="http://www.w3.org/2000/svg" version="1.1">
 <metadata>
  <rdf:RDF xmlns:dc="http://purl.org/dc/elements/1.1/" xmlns:cc="http://creativecommons.org/ns#" xmlns:rdf="http://www.w3.org/1999/02/22-rdf-syntax-ns#">
   <cc:Work>
    <dc:type rdf:resource="http://purl.org/dc/dcmitype/StillImage"/>
    <dc:date>2026-10-01T14:28:10.276540</dc:date>
    <dc:format>image/svg+xml</dc:format>
    <dc:creator>
     <cc:Agent>
      <dc:title>Matplotlib v3.11.2, https://matplotlib.org/</dc:title>
     </cc:Agent>
    </dc:creator>
   </cc:Work>
  </rdf:RDF>
 </metadata>
 <defs>
  <style type="text/css">*{stroke-linejoin: round; stroke-linecap: butt}</style>
 </defs>
 <g id="figure_1">
  <g id="patch_1">
   <path d="M 0 402.48 
L 851.4 402.48 
L 851.4 -0 
L 0 -0 
z
" style="fill: #ffffff"/>
  </g>
  <g id="axes_1">
   <g id="patch_2">
    <path d="M 254.324746 145.8 
Q 259.796181 145.8 263.702368 145.8 
" clip-path="url(#pd44df5f341)" style="fill: none; stroke: #2864aa; stroke-width: 1.4; stroke-linecap: round"/>
    <path d="M 258.502368 143.2 
L 263.702368 145.8 
L 258.502368 148.4 
z
" clip-path="url(#pd44df5f341)" style="fill: #2864aa; stroke: #2864aa; stroke-width: 1.4; stroke-linecap: round"/>
   </g>
   <g id="patch_3">
    <path d="M 424.714032 145.8 
Q 430.185467 145.8 434.091654 145.8 
" clip-path="url(#pd44df5f341)" style="fill: none; stroke: #2864aa; stroke-width: 1.4; stroke-linecap: round"/>
    <path d="M 428.891654 143.2 
L 434.091654 145.8 
L 428.891654 148.4 
z
" clip-path="url(#pd44df5f341)" style="fill: #2864aa; stroke: #2864aa; stroke-width: 1.4; stroke-linecap: round"/>
   </g>
   <g id="patch_4">
    <path d="M 595.100034 145.8 
Q 603.56221 145.8 610.45914 145.8 
" clip-path="url(#pd44df5f341)" style="fill: none; stroke: #2864aa; stroke-width: 1.4; stroke-linecap: round"/>
    <path d="M 605.25914 143.2 
L 610.45914 145.8 
L 605.25914 148.4 
z
" clip-path="url(#pd44df5f341)" style="fill: #2864aa; stroke: #2864aa; stroke-width: 1.4; stroke-linecap: round"/>
   </g>
   <g id="patch_5">
    <path d="M 254.324746 234.504 
Q 259.796181 234.504 263.702368 234.504 
" clip-path="url(#pd44df5f341)" style="fill: none; stroke: #b44343; stroke-width: 1.4; stroke-linecap: round"/>
    <path d="M 258.502368 231.904 
L 263.702368 234.504 
L 258.502368 237.104 
z
" clip-path="url(#pd44df5f341)" style="fill: #b44343; stroke: #b44343; stroke-width: 1.4; stroke-linecap: round"/>
   </g>
   <g id="patch_6">
    <path d="M 424.714032 234.504 
Q 430.185467 234.504 434.091654 234.504 
" clip-path="url(#pd44df5f341)" style="fill: none; stroke: #b44343; stroke-width: 1.4; stroke-linecap: round"/>
    <path d="M 428.891654 231.904 
L 434.091654 234.504 
L 428.891654 237.104 
z
" clip-path="url(#pd44df5f341)" style="fill: #b44343; stroke: #b44343; stroke-width: 1.4; stroke-linecap: round"/>
   </g>
   <g id="patch_7">
    <path d="M 595.100034 234.504 
Q 603.56221 234.504 610.45914 234.504 
" clip-path="url(#pd44df5f341)" style="fill: none; stroke: #b44343; stroke-width: 1.4; stroke-linecap: round"/>
    <path d="M 605.25914 231.904 
L 610.45914 234.504 
L 605.25914 237.104 
z
" clip-path="url(#pd44df5f341)" style="fill: #b44343; stroke: #b44343; stroke-width: 1.4; stroke-linecap: round"/>
   </g>
   <g id="patch_8">
    <path d="M 254.324746 323.208 
Q 259.796181 323.208 263.702368 323.208 
" clip-path="url(#pd44df5f341)" style="fill: none; stroke: #278260; stroke-width: 1.4; stroke-linecap: round"/>
    <path d="M 258.502368 320.608 
L 263.702368 323.208 
L 258.502368 325.808 
z
" clip-path="url(#pd44df5f341)" style="fill: #278260; stroke: #278260; stroke-width: 1.4; stroke-linecap: round"/>
   </g>
   <g id="patch_9">
    <path d="M 424.714032 323.208 
Q 430.185467 323.208 434.091654 323.208 
" clip-path="url(#pd44df5f341)" style="fill: none; stroke: #278260; stroke-width: 1.4; stroke-linecap: round"/>
    <path d="M 428.891654 320.608 
L 434.091654 323.208 
L 428.891654 325.808 
z
" clip-path="url(#pd44df5f341)" style="fill: #278260; stroke: #278260; stroke-width: 1.4; stroke-linecap: round"/>
   </g>
   <g id="patch_10">
    <path d="M 595.100034 323.208 
Q 603.56221 323.208 610.45914 323.208 
" clip-path="url(#pd44df5f341)" style="fill: none; stroke: #278260; stroke-width: 1.4; stroke-linecap: round"/>
    <path d="M 605.25914 320.608 
L 610.45914 323.208 
L 605.25914 325.808 
z
" clip-path="url(#pd44df5f341)" style="fill: #278260; stroke: #278260; stroke-width: 1.4; stroke-linecap: round"/>
   </g>
   <g id="text_1">
    <text style="font-weight: 700; font-size: 20px; font-family: 'DejaVu Sans'; text-anchor: start; fill: #18283b" x="19.157143" y="26.604" transform="rotate(-0 19.157143 26.604)">One edited step, three possible reasoning paths</text>
   </g>
   <g id="text_2">
    <text style="font-size: 11px; font-family: 'DejaVu Sans'; text-anchor: start; fill: #718096" x="19.157143" y="57.096" transform="rotate(-0 19.157143 57.096)">Prompt: 3 boxes × 4 marbles; remove 5. How many remain?  Correct answer: 7.</text>
   </g>
   <g id="text_3">
    <text style="font-weight: 700; font-size: 11px; font-family: 'DejaVu Sans'; text-anchor: middle; fill: #718096" x="174.6" y="89.2512" transform="rotate(-0 174.6 89.2512)">Step 1: N</text>
   </g>
   <g id="text_4">
    <text style="font-weight: 700; font-size: 11px; font-family: 'DejaVu Sans'; text-anchor: middle; fill: #718096" x="344.989286" y="89.2512" transform="rotate(-0 344.989286 89.2512)">Step 2: B</text>
   </g>
   <g id="text_5">
    <text style="font-weight: 700; font-size: 11px; font-family: 'DejaVu Sans'; text-anchor: middle; fill: #718096" x="515.378571" y="89.2512" transform="rotate(-0 515.378571 89.2512)">Step 3: C</text>
   </g>
   <g id="text_6">
    <text style="font-weight: 700; font-size: 11px; font-family: 'DejaVu Sans'; text-anchor: middle; fill: #718096" x="691.746429" y="89.2512" transform="rotate(-0 691.746429 89.2512)">Final answer: Y</text>
   </g>
   <g id="text_7">
    <text style="font-weight: 700; font-size: 12px; font-family: 'DejaVu Sans'; text-anchor: start; fill: #2864aa" x="19.157143" y="145.8" transform="rotate(-0 19.157143 145.8)">Original</text>
   </g>
   <g id="patch_11">
    <path d="M 102.558214 171.8568 
L 246.641786 171.8568 
Q 252.620357 171.8568 252.620357 166.3128 
L 252.620357 125.2872 
Q 252.620357 119.7432 246.641786 119.7432 
L 102.558214 119.7432 
Q 96.579643 119.7432 96.579643 125.2872 
L 96.579643 166.3128 
Q 96.579643 171.8568 102.558214 171.8568 
z
" clip-path="url(#pd44df5f341)" style="fill: #f5f8fc; stroke: #2864aa; stroke-width: 1.4; stroke-linejoin: miter"/>
   </g>
   <g id="patch_12">
    <path d="M 272.9475 171.8568 
L 417.031071 171.8568 
Q 423.009643 171.8568 423.009643 166.3128 
L 423.009643 125.2872 
Q 423.009643 119.7432 417.031071 119.7432 
L 272.9475 119.7432 
Q 266.968929 119.7432 266.968929 125.2872 
L 266.968929 166.3128 
Q 266.968929 171.8568 272.9475 171.8568 
z
" clip-path="url(#pd44df5f341)" style="fill: #f5f8fc; stroke: #2864aa; stroke-width: 1.4; stroke-linejoin: miter"/>
   </g>
   <g id="patch_13">
    <path d="M 443.336786 171.8568 
L 587.420357 171.8568 
Q 593.398929 171.8568 593.398929 166.3128 
L 593.398929 125.2872 
Q 593.398929 119.7432 587.420357 119.7432 
L 443.336786 119.7432 
Q 437.358214 119.7432 437.358214 125.2872 
L 437.358214 166.3128 
Q 437.358214 171.8568 443.336786 171.8568 
z
" clip-path="url(#pd44df5f341)" style="fill: #f5f8fc; stroke: #2864aa; stroke-width: 1.4; stroke-linejoin: miter"/>
   </g>
   <g id="patch_14">
    <path d="M 619.704643 171.8568 
L 763.788214 171.8568 
Q 769.766786 171.8568 769.766786 166.3128 
L 769.766786 125.2872 
Q 769.766786 119.7432 763.788214 119.7432 
L 619.704643 119.7432 
Q 613.726071 119.7432 613.726071 125.2872 
L 613.726071 166.3128 
Q 613.726071 171.8568 619.704643 171.8568 
z
" clip-path="url(#pd44df5f341)" style="fill: #f5f8fc; stroke: #2864aa; stroke-width: 1.4; stroke-linejoin: miter"/>
   </g>
   <g id="text_8">
    <text style="font-weight: 700; font-size: 12px; font-family: 'DejaVu Sans'; text-anchor: start; fill: #b44343" x="19.157143" y="234.504" transform="rotate(-0 19.157143 234.504)">Propagate</text>
   </g>
   <g id="patch_15">
    <path d="M 102.558214 260.5608 
L 246.641786 260.5608 
Q 252.620357 260.5608 252.620357 255.0168 
L 252.620357 213.9912 
Q 252.620357 208.4472 246.641786 208.4472 
L 102.558214 208.4472 
Q 96.579643 208.4472 96.579643 213.9912 
L 96.579643 255.0168 
Q 96.579643 260.5608 102.558214 260.5608 
z
" clip-path="url(#pd44df5f341)" style="fill: #f5f8fc; stroke: #b44343; stroke-width: 1.4; stroke-linejoin: miter"/>
   </g>
   <g id="patch_16">
    <path d="M 272.9475 260.5608 
L 417.031071 260.5608 
Q 423.009643 260.5608 423.009643 255.0168 
L 423.009643 213.9912 
Q 423.009643 208.4472 417.031071 208.4472 
L 272.9475 208.4472 
Q 266.968929 208.4472 266.968929 213.9912 
L 266.968929 255.0168 
Q 266.968929 260.5608 272.9475 260.5608 
z
" clip-path="url(#pd44df5f341)" style="fill: #f5f8fc; stroke: #b44343; stroke-width: 1.4; stroke-linejoin: miter"/>
   </g>
   <g id="patch_17">
    <path d="M 443.336786 260.5608 
L 587.420357 260.5608 
Q 593.398929 260.5608 593.398929 255.0168 
L 593.398929 213.9912 
Q 593.398929 208.4472 587.420357 208.4472 
L 443.336786 208.4472 
Q 437.358214 208.4472 437.358214 213.9912 
L 437.358214 255.0168 
Q 437.358214 260.5608 443.336786 260.5608 
z
" clip-path="url(#pd44df5f341)" style="fill: #f5f8fc; stroke: #b44343; stroke-width: 1.4; stroke-linejoin: miter"/>
   </g>
   <g id="patch_18">
    <path d="M 619.704643 260.5608 
L 763.788214 260.5608 
Q 769.766786 260.5608 769.766786 255.0168 
L 769.766786 213.9912 
Q 769.766786 208.4472 763.788214 208.4472 
L 619.704643 208.4472 
Q 613.726071 208.4472 613.726071 213.9912 
L 613.726071 255.0168 
Q 613.726071 260.5608 619.704643 260.5608 
z
" clip-path="url(#pd44df5f341)" style="fill: #f5f8fc; stroke: #b44343; stroke-width: 1.4; stroke-linejoin: miter"/>
   </g>
   <g id="text_9">
    <text style="font-weight: 700; font-size: 12px; font-family: 'DejaVu Sans'; text-anchor: start; fill: #278260" x="19.157143" y="323.208" transform="rotate(-0 19.157143 323.208)">Repair</text>
   </g>
   <g id="patch_19">
    <path d="M 102.558214 349.2648 
L 246.641786 349.2648 
Q 252.620357 349.2648 252.620357 343.7208 
L 252.620357 302.6952 
Q 252.620357 297.1512 246.641786 297.1512 
L 102.558214 297.1512 
Q 96.579643 297.1512 96.579643 302.6952 
L 96.579643 343.7208 
Q 96.579643 349.2648 102.558214 349.2648 
z
" clip-path="url(#pd44df5f341)" style="fill: #f5f8fc; stroke: #278260; stroke-width: 1.4; stroke-linejoin: miter"/>
   </g>
   <g id="patch_20">
    <path d="M 272.9475 349.2648 
L 417.031071 349.2648 
Q 423.009643 349.2648 423.009643 343.7208 
L 423.009643 302.6952 
Q 423.009643 297.1512 417.031071 297.1512 
L 272.9475 297.1512 
Q 266.968929 297.1512 266.968929 302.6952 
L 266.968929 343.7208 
Q 266.968929 349.2648 272.9475 349.2648 
z
" clip-path="url(#pd44df5f341)" style="fill: #f5f8fc; stroke: #278260; stroke-width: 1.4; stroke-linejoin: miter"/>
   </g>
   <g id="patch_21">
    <path d="M 443.336786 349.2648 
L 587.420357 349.2648 
Q 593.398929 349.2648 593.398929 343.7208 
L 593.398929 302.6952 
Q 593.398929 297.1512 587.420357 297.1512 
L 443.336786 297.1512 
Q 437.358214 297.1512 437.358214 302.6952 
L 437.358214 343.7208 
Q 437.358214 349.2648 443.336786 349.2648 
z
" clip-path="url(#pd44df5f341)" style="fill: #f5f8fc; stroke: #278260; stroke-width: 1.4; stroke-linejoin: miter"/>
   </g>
   <g id="patch_22">
    <path d="M 619.704643 349.2648 
L 763.788214 349.2648 
Q 769.766786 349.2648 769.766786 343.7208 
L 769.766786 302.6952 
Q 769.766786 297.1512 763.788214 297.1512 
L 619.704643 297.1512 
Q 613.726071 297.1512 613.726071 302.6952 
L 613.726071 343.7208 
Q 613.726071 349.2648 619.704643 349.2648 
z
" clip-path="url(#pd44df5f341)" style="fill: #f5f8fc; stroke: #278260; stroke-width: 1.4; stroke-linejoin: miter"/>
   </g>
   <g id="text_10">
    <text style="font-size: 10px; font-family: 'DejaVu Sans'; text-anchor: start; fill: #718096" x="19.157143" y="375.876" transform="rotate(-0 19.157143 375.876)">A locally coherent calculation can propagate a false premise. A later repair can hide that influence at the answer.</text>
   </g>
   <g id="text_11">
    <text style="font-size: 10px; font-family: 'DejaVu Sans'; text-anchor: middle; fill: #18283b" x="174.6" y="148.397656" transform="rotate(-0 174.6 148.397656)">3 × 4 = 12</text>
   </g>
   <g id="text_12">
    <text style="font-size: 10px; font-family: 'DejaVu Sans'; text-anchor: middle; fill: #18283b" x="344.989286" y="148.397656" transform="rotate(-0 344.989286 148.397656)">12 − 5 = 7</text>
   </g>
   <g id="text_13">
    <text style="font-size: 10px; font-family: 'DejaVu Sans'; text-anchor: middle; fill: #18283b" x="515.378571" y="148.398047" transform="rotate(-0 515.378571 148.398047)">Keep result 7</text>
   </g>
   <g id="text_14">
    <text style="font-size: 10px; font-family: 'DejaVu Sans'; text-anchor: middle; fill: #18283b" x="691.746429" y="148.398047" transform="rotate(-0 691.746429 148.398047)">7 marbles</text>
   </g>
   <g id="text_15">
    <text style="font-size: 10px; font-family: 'DejaVu Sans'; fill: #18283b" transform="translate(147.139062 231.100289)">3 × 4 = 15</text>
    <text style="font-size: 10px; font-family: 'DejaVu Sans'; fill: #18283b" transform="translate(139.003906 243.103023)">[inserted edit]</text>
   </g>
   <g id="text_16">
    <text style="font-size: 10px; font-family: 'DejaVu Sans'; text-anchor: middle; fill: #18283b" x="344.989286" y="237.101656" transform="rotate(-0 344.989286 237.101656)">15 − 5 = 10</text>
   </g>
   <g id="text_17">
    <text style="font-size: 10px; font-family: 'DejaVu Sans'; text-anchor: middle; fill: #18283b" x="515.378571" y="237.102047" transform="rotate(-0 515.378571 237.102047)">Keep result 10</text>
   </g>
   <g id="text_18">
    <text style="font-size: 10px; font-family: 'DejaVu Sans'; text-anchor: middle; fill: #18283b" x="691.746429" y="237.102047" transform="rotate(-0 691.746429 237.102047)">10 marbles</text>
   </g>
   <g id="text_19">
    <text style="font-size: 10px; font-family: 'DejaVu Sans'; fill: #18283b" transform="translate(147.139062 319.804289)">3 × 4 = 15</text>
    <text style="font-size: 10px; font-family: 'DejaVu Sans'; fill: #18283b" transform="translate(139.003906 331.807023)">[inserted edit]</text>
   </g>
   <g id="text_20">
    <text style="font-size: 10px; font-family: 'DejaVu Sans'; text-anchor: middle; fill: #18283b" x="344.989286" y="325.805656" transform="rotate(-0 344.989286 325.805656)">15 − 5 = 10</text>
   </g>
   <g id="text_21">
    <text style="font-size: 10px; font-family: 'DejaVu Sans'; text-anchor: middle; fill: #18283b" x="515.378571" y="325.806047" transform="rotate(-0 515.378571 325.806047)">Recheck: 12 − 5 = 7</text>
   </g>
   <g id="text_22">
    <text style="font-size: 10px; font-family: 'DejaVu Sans'; text-anchor: middle; fill: #18283b" x="691.746429" y="325.806047" transform="rotate(-0 691.746429 325.806047)">7 marbles</text>
   </g>
  </g>
 </g>
 <defs>
  <clipPath id="pd44df5f341">
   <rect x="7.2" y="7.2" width="837" height="388.08"/>
  </clipPath>
 </defs>
</svg>
